
<svg version="1.0" xmlns="http://www.w3.org/2000/svg"
 width="500.000000pt" height="500.000000pt" viewBox="0 0 500.000000 500.000000"
 preserveAspectRatio="xMidYMid meet">

<g transform="translate(0.000000,500.000000) scale(0.100000,-0.100000)"
fill="rgb(208, 208, 208)" stroke="none">
<path d="M2398 3220 c-295 -46 -520 -240 -588 -506 -19 -72 -20 -112 -20 -565
0 -296 4 -518 11 -566 32 -229 184 -405 424 -490 77 -27 86 -28 275 -28 186 0
199 2 276 28 214 72 378 247 420 451 23 112 16 1104 -9 1186 -85 283 -335 473
-647 493 -47 3 -111 2 -142 -3z m62 -195 c0 -70 -2 -78 -27 -100 l-28 -23 0
-192 0 -192 28 -23 27 -24 1 -263 c1 -145 4 -290 8 -323 5 -52 9 -60 28 -63
43 -6 46 20 41 345 -4 286 -3 305 14 314 39 21 48 60 48 222 0 166 -8 207 -46
232 -22 14 -24 22 -24 90 l0 75 34 0 c54 0 189 -43 251 -81 119 -71 209 -181
245 -296 17 -56 20 -109 26 -570 5 -361 3 -525 -5 -568 -35 -188 -191 -342
-392 -390 -87 -20 -302 -20 -382 1 -128 33 -248 114 -312 209 -72 110 -73 113
-81 671 -8 562 -5 599 53 716 43 85 134 181 218 228 66 38 191 79 243 79 l32
1 0 -75z"/>
<path d="M1427 2353 c-159 -158 -188 -195 -180 -223 3 -8 82 -93 177 -187 180
-182 202 -196 239 -155 35 39 23 60 -123 207 -77 77 -140 144 -140 148 0 4 61
69 135 145 105 107 135 143 135 164 0 29 -31 58 -64 58 -12 0 -82 -62 -179
-157z"/>
<path d="M3337 2492 c-36 -39 -23 -61 123 -206 77 -76 140 -141 140 -145 0 -3
-61 -66 -135 -141 -141 -142 -156 -168 -119 -204 39 -39 62 -24 235 149 136
137 165 171 167 198 3 30 -10 45 -166 200 -143 141 -174 167 -199 167 -17 0
-37 -8 -46 -18z"/>
</g>
</svg>
